<?xml version="1.0" encoding="UTF-8"?>
<svg xmlns="http://www.w3.org/2000/svg" xmlns:xlink="http://www.w3.org/1999/xlink" width="260pt" height="229pt" viewBox="0 0 260 229" version="1.1">
<g id="surface1">
<path style="fill:none;stroke-width:1.44;stroke-linecap:square;stroke-linejoin:miter;stroke:rgb(0%,0%,0%);stroke-opacity:0.7;stroke-miterlimit:3.25;" d="M 167.0625 15.980469 L 129.699219 79.15625 "/>
<path style="fill:none;stroke-width:1.44;stroke-linecap:square;stroke-linejoin:miter;stroke:rgb(0%,0%,0%);stroke-opacity:0.7;stroke-miterlimit:3.25;" d="M 129.699219 79.15625 L 92.441406 15.972656 "/>
<path style="fill:none;stroke-width:1.44;stroke-linecap:square;stroke-linejoin:miter;stroke:rgb(0%,0%,0%);stroke-opacity:0.7;stroke-miterlimit:3.25;" d="M 129.699219 79.15625 L 169.71875 148.59375 "/>
<path style="fill:none;stroke-width:1.44;stroke-linecap:square;stroke-linejoin:miter;stroke:rgb(0%,0%,0%);stroke-opacity:0.7;stroke-miterlimit:3.25;" d="M 129.699219 79.15625 L 89.503906 148.53125 "/>
<path style="fill:none;stroke-width:1.44;stroke-linecap:square;stroke-linejoin:miter;stroke:rgb(0%,0%,0%);stroke-opacity:0.7;stroke-miterlimit:3.25;" d="M 169.71875 148.59375 L 205.78125 212.433594 "/>
<path style="fill:none;stroke-width:1.44;stroke-linecap:square;stroke-linejoin:miter;stroke:rgb(0%,0%,0%);stroke-opacity:0.7;stroke-miterlimit:3.25;" d="M 169.71875 148.59375 L 243.019531 147.839844 "/>
<path style="fill:none;stroke-width:1.44;stroke-linecap:square;stroke-linejoin:miter;stroke:rgb(0%,0%,0%);stroke-opacity:0.7;stroke-miterlimit:3.25;" d="M 169.71875 148.59375 L 89.503906 148.53125 "/>
<path style="fill:none;stroke-width:1.44;stroke-linecap:square;stroke-linejoin:miter;stroke:rgb(0%,0%,0%);stroke-opacity:0.7;stroke-miterlimit:3.25;" d="M 89.503906 148.53125 L 16.179688 147.671875 "/>
<path style="fill:none;stroke-width:1.44;stroke-linecap:square;stroke-linejoin:miter;stroke:rgb(0%,0%,0%);stroke-opacity:0.7;stroke-miterlimit:3.25;" d="M 89.503906 148.53125 L 53.453125 212.382812 "/>
<path style="fill-rule:evenodd;fill:rgb(99.998474%,99.998474%,99.998474%);fill-opacity:1;stroke-width:1.44;stroke-linecap:square;stroke-linejoin:miter;stroke:rgb(0%,0%,0%);stroke-opacity:0.7;stroke-miterlimit:3.25;" d="M 178.058594 15.980469 C 178.058594 13.066406 176.898438 10.269531 174.835938 8.207031 C 172.773438 6.144531 169.976562 4.984375 167.0625 4.984375 C 164.144531 4.984375 161.347656 6.144531 159.285156 8.207031 C 157.226562 10.269531 156.066406 13.066406 156.066406 15.980469 C 156.066406 18.898438 157.226562 21.695312 159.285156 23.757812 C 161.347656 25.820312 164.144531 26.976562 167.0625 26.976562 C 169.976562 26.976562 172.773438 25.820312 174.835938 23.757812 C 176.898438 21.695312 178.058594 18.898438 178.058594 15.980469 Z M 178.058594 15.980469 "/>
<path style="fill-rule:evenodd;fill:rgb(0%,0%,0%);fill-opacity:1;stroke-width:1.44;stroke-linecap:square;stroke-linejoin:miter;stroke:rgb(0%,0%,0%);stroke-opacity:0.7;stroke-miterlimit:3.25;" d="M 140.695312 79.15625 C 140.695312 76.238281 139.539062 73.441406 137.476562 71.382812 C 135.414062 69.320312 132.617188 68.160156 129.699219 68.160156 C 126.785156 68.160156 123.988281 69.320312 121.925781 71.382812 C 119.863281 73.441406 118.703125 76.238281 118.703125 79.15625 C 118.703125 82.074219 119.863281 84.867188 121.925781 86.929688 C 123.988281 88.992188 126.785156 90.152344 129.699219 90.152344 C 132.617188 90.152344 135.414062 88.992188 137.476562 86.929688 C 139.539062 84.867188 140.695312 82.074219 140.695312 79.15625 Z M 140.695312 79.15625 "/>
<path style="fill-rule:evenodd;fill:rgb(99.998474%,99.998474%,99.998474%);fill-opacity:1;stroke-width:1.44;stroke-linecap:square;stroke-linejoin:miter;stroke:rgb(0%,0%,0%);stroke-opacity:0.7;stroke-miterlimit:3.25;" d="M 103.4375 15.972656 C 103.4375 13.054688 102.277344 10.257812 100.21875 8.195312 C 98.15625 6.136719 95.359375 4.976562 92.441406 4.976562 C 89.527344 4.976562 86.730469 6.136719 84.667969 8.195312 C 82.605469 10.257812 81.445312 13.054688 81.445312 15.972656 C 81.445312 18.886719 82.605469 21.683594 84.667969 23.746094 C 86.730469 25.808594 89.527344 26.96875 92.441406 26.96875 C 95.359375 26.96875 98.15625 25.808594 100.21875 23.746094 C 102.277344 21.683594 103.4375 18.886719 103.4375 15.972656 Z M 103.4375 15.972656 "/>
<path style="fill-rule:evenodd;fill:rgb(0%,0%,0%);fill-opacity:1;stroke-width:1.44;stroke-linecap:square;stroke-linejoin:miter;stroke:rgb(0%,0%,0%);stroke-opacity:0.7;stroke-miterlimit:3.25;" d="M 180.714844 148.59375 C 180.714844 145.675781 179.558594 142.878906 177.496094 140.816406 C 175.433594 138.753906 172.636719 137.597656 169.71875 137.597656 C 166.804688 137.597656 164.007812 138.753906 161.945312 140.816406 C 159.882812 142.878906 158.726562 145.675781 158.726562 148.59375 C 158.726562 151.507812 159.882812 154.304688 161.945312 156.367188 C 164.007812 158.429688 166.804688 159.589844 169.71875 159.589844 C 172.636719 159.589844 175.433594 158.429688 177.496094 156.367188 C 179.558594 154.304688 180.714844 151.507812 180.714844 148.59375 Z M 180.714844 148.59375 "/>
<path style="fill-rule:evenodd;fill:rgb(99.998474%,99.998474%,99.998474%);fill-opacity:1;stroke-width:1.44;stroke-linecap:square;stroke-linejoin:miter;stroke:rgb(0%,0%,0%);stroke-opacity:0.7;stroke-miterlimit:3.25;" d="M 216.773438 212.433594 C 216.773438 209.515625 215.617188 206.71875 213.554688 204.65625 C 211.492188 202.597656 208.695312 201.4375 205.78125 201.4375 C 202.863281 201.4375 200.066406 202.597656 198.003906 204.65625 C 195.941406 206.71875 194.785156 209.515625 194.785156 212.433594 C 194.785156 215.347656 195.941406 218.144531 198.003906 220.207031 C 200.066406 222.269531 202.863281 223.429688 205.78125 223.429688 C 208.695312 223.429688 211.492188 222.269531 213.554688 220.207031 C 215.617188 218.144531 216.773438 215.347656 216.773438 212.433594 Z M 216.773438 212.433594 "/>
<path style="fill-rule:evenodd;fill:rgb(99.998474%,99.998474%,99.998474%);fill-opacity:1;stroke-width:1.44;stroke-linecap:square;stroke-linejoin:miter;stroke:rgb(0%,0%,0%);stroke-opacity:0.7;stroke-miterlimit:3.25;" d="M 254.015625 147.839844 C 254.015625 144.925781 252.859375 142.128906 250.796875 140.066406 C 248.734375 138.003906 245.9375 136.847656 243.019531 136.847656 C 240.105469 136.847656 237.308594 138.003906 235.246094 140.066406 C 233.183594 142.128906 232.023438 144.925781 232.023438 147.839844 C 232.023438 150.757812 233.183594 153.554688 235.246094 155.617188 C 237.308594 157.679688 240.105469 158.835938 243.019531 158.835938 C 245.9375 158.835938 248.734375 157.679688 250.796875 155.617188 C 252.859375 153.554688 254.015625 150.757812 254.015625 147.839844 Z M 254.015625 147.839844 "/>
<path style="fill-rule:evenodd;fill:rgb(0%,0%,0%);fill-opacity:1;stroke-width:1.44;stroke-linecap:square;stroke-linejoin:miter;stroke:rgb(0%,0%,0%);stroke-opacity:0.7;stroke-miterlimit:3.25;" d="M 100.5 148.53125 C 100.5 145.613281 99.339844 142.816406 97.277344 140.753906 C 95.21875 138.691406 92.421875 137.535156 89.503906 137.535156 C 86.589844 137.535156 83.792969 138.691406 81.730469 140.753906 C 79.667969 142.816406 78.507812 145.613281 78.507812 148.53125 C 78.507812 151.445312 79.667969 154.242188 81.730469 156.304688 C 83.792969 158.367188 86.589844 159.523438 89.503906 159.523438 C 92.421875 159.523438 95.21875 158.367188 97.277344 156.304688 C 99.339844 154.242188 100.5 151.445312 100.5 148.53125 Z M 100.5 148.53125 "/>
<path style="fill-rule:evenodd;fill:rgb(99.998474%,99.998474%,99.998474%);fill-opacity:1;stroke-width:1.44;stroke-linecap:square;stroke-linejoin:miter;stroke:rgb(0%,0%,0%);stroke-opacity:0.7;stroke-miterlimit:3.25;" d="M 27.175781 147.671875 C 27.175781 144.757812 26.015625 141.960938 23.953125 139.898438 C 21.890625 137.835938 19.097656 136.679688 16.179688 136.679688 C 13.261719 136.679688 10.464844 137.835938 8.40625 139.898438 C 6.34375 141.960938 5.183594 144.757812 5.183594 147.671875 C 5.183594 150.589844 6.34375 153.386719 8.40625 155.449219 C 10.464844 157.511719 13.261719 158.667969 16.179688 158.667969 C 19.097656 158.667969 21.890625 157.511719 23.953125 155.449219 C 26.015625 153.386719 27.175781 150.589844 27.175781 147.671875 Z M 27.175781 147.671875 "/>
<path style="fill-rule:evenodd;fill:rgb(99.998474%,99.998474%,99.998474%);fill-opacity:1;stroke-width:1.44;stroke-linecap:square;stroke-linejoin:miter;stroke:rgb(0%,0%,0%);stroke-opacity:0.7;stroke-miterlimit:3.25;" d="M 64.445312 212.382812 C 64.445312 209.46875 63.289062 206.671875 61.226562 204.609375 C 59.164062 202.546875 56.367188 201.390625 53.453125 201.390625 C 50.535156 201.390625 47.738281 202.546875 45.675781 204.609375 C 43.613281 206.671875 42.457031 209.46875 42.457031 212.382812 C 42.457031 215.300781 43.613281 218.097656 45.675781 220.160156 C 47.738281 222.222656 50.535156 223.378906 53.453125 223.378906 C 56.367188 223.378906 59.164062 222.222656 61.226562 220.160156 C 63.289062 218.097656 64.445312 215.300781 64.445312 212.382812 Z M 64.445312 212.382812 "/>
</g>
</svg>
