<?xml version="1.0" encoding="UTF-8"?>
<svg xmlns="http://www.w3.org/2000/svg" xmlns:xlink="http://www.w3.org/1999/xlink" width="260pt" height="232pt" viewBox="0 0 260 232" version="1.1">
<g id="surface1">
<path style="fill:none;stroke-width:1.44;stroke-linecap:butt;stroke-linejoin:miter;stroke:rgb(0%,0%,0%);stroke-opacity:0.7;stroke-miterlimit:3.25;" d="M 198.734375 205.074219 L 193.472656 199.195312 L 187.886719 191.847656 L 182.949219 184.125 L 178.664062 176.019531 L 175.03125 167.539062 L 175.015625 167.492188 "/>
<path style=" stroke:none;fill-rule:nonzero;fill:rgb(0%,0%,0%);fill-opacity:0.7;" d="M 173.179688 168.96875 L 173.382812 168.765625 L 173.878906 168.300781 L 174.183594 168.039062 L 174.496094 167.796875 L 174.800781 167.597656 L 175.066406 167.472656 L 175.332031 167.414062 L 175.6875 167.386719 L 176.09375 167.382812 L 176.519531 167.390625 L 177.25 167.433594 L 177.5625 167.457031 L 172.515625 160.058594 Z M 173.179688 168.96875 "/>
<path style="fill:none;stroke-width:1.44;stroke-linecap:butt;stroke-linejoin:miter;stroke:rgb(0%,0%,0%);stroke-opacity:0.7;stroke-miterlimit:3.25;" d="M 177.578125 157.109375 L 182.839844 162.988281 L 188.425781 170.335938 L 193.363281 178.058594 L 197.648438 186.164062 L 201.28125 194.648438 L 201.296875 194.691406 "/>
<path style=" stroke:none;fill-rule:nonzero;fill:rgb(0%,0%,0%);fill-opacity:0.7;" d="M 203.132812 193.214844 L 202.929688 193.417969 L 202.433594 193.882812 L 202.128906 194.144531 L 201.816406 194.386719 L 201.515625 194.585938 L 201.246094 194.710938 L 200.980469 194.769531 L 200.625 194.796875 L 200.21875 194.804688 L 199.792969 194.792969 L 199.0625 194.753906 L 198.75 194.726562 L 203.796875 202.125 Z M 203.132812 193.214844 "/>
<path style="fill:none;stroke-width:1.44;stroke-linecap:butt;stroke-linejoin:miter;stroke:rgb(0%,0%,0%);stroke-opacity:0.7;stroke-miterlimit:3.25;" d="M 159.1875 152.585938 L 149.734375 154.671875 L 139.726562 156.050781 L 129.707031 156.609375 L 119.675781 156.34375 L 109.628906 155.25 L 107.824219 154.90625 "/>
<path style=" stroke:none;fill-rule:nonzero;fill:rgb(0%,0%,0%);fill-opacity:0.7;" d="M 108.183594 157.289062 L 108.105469 157.011719 L 107.949219 156.351562 L 107.875 155.957031 L 107.820312 155.5625 L 107.800781 155.203125 L 107.824219 154.90625 L 107.90625 154.652344 L 108.054688 154.328125 L 108.253906 153.96875 L 108.472656 153.605469 L 108.871094 152.992188 L 109.050781 152.734375 L 100.121094 153.441406 Z M 108.183594 157.289062 "/>
<path style="fill:none;stroke-width:1.44;stroke-linecap:butt;stroke-linejoin:miter;stroke:rgb(0%,0%,0%);stroke-opacity:0.7;stroke-miterlimit:3.25;" d="M 232.039062 147.882812 L 188.542969 148.964844 "/>
<path style=" stroke:none;fill-rule:nonzero;fill:rgb(0%,0%,0%);fill-opacity:0.7;" d="M 189.398438 151.21875 L 189.265625 150.964844 L 188.972656 150.351562 L 188.816406 149.980469 L 188.679688 149.609375 L 188.582031 149.261719 L 188.542969 148.964844 L 188.566406 148.699219 L 188.648438 148.351562 L 188.765625 147.957031 L 188.902344 147.558594 L 189.164062 146.875 L 189.28125 146.582031 L 180.703125 149.160156 Z M 189.398438 151.21875 "/>
<path style="fill:none;stroke-width:1.44;stroke-linecap:butt;stroke-linejoin:miter;stroke:rgb(0%,0%,0%);stroke-opacity:0.7;stroke-miterlimit:3.25;" d="M 100.035156 147.445312 L 109.488281 145.359375 L 119.496094 143.976562 L 129.515625 143.417969 L 139.546875 143.6875 L 149.59375 144.777344 L 151.398438 145.121094 "/>
<path style=" stroke:none;fill-rule:nonzero;fill:rgb(0%,0%,0%);fill-opacity:0.7;" d="M 151.039062 142.738281 L 151.117188 143.015625 L 151.273438 143.679688 L 151.347656 144.074219 L 151.402344 144.464844 L 151.421875 144.828125 L 151.398438 145.121094 L 151.316406 145.378906 L 151.164062 145.703125 L 150.96875 146.058594 L 150.75 146.421875 L 150.351562 147.035156 L 150.171875 147.296875 L 159.101562 146.589844 Z M 151.039062 142.738281 "/>
<path style="fill:none;stroke-width:1.44;stroke-linecap:butt;stroke-linejoin:miter;stroke:rgb(0%,0%,0%);stroke-opacity:0.7;stroke-miterlimit:3.25;" d="M 94.871094 141 L 119.421875 97.089844 "/>
<path style=" stroke:none;fill-rule:nonzero;fill:rgb(0%,0%,0%);fill-opacity:0.7;" d="M 117.046875 96.675781 L 117.335938 96.691406 L 118.011719 96.753906 L 118.410156 96.804688 L 118.800781 96.878906 L 119.148438 96.972656 L 119.421875 97.089844 L 119.640625 97.246094 L 119.898438 97.492188 L 120.175781 97.792969 L 120.449219 98.117188 L 120.90625 98.6875 L 121.097656 98.941406 L 123.25 90.246094 Z M 117.046875 96.675781 "/>
<path style="fill:none;stroke-width:1.44;stroke-linecap:butt;stroke-linejoin:miter;stroke:rgb(0%,0%,0%);stroke-opacity:0.7;stroke-miterlimit:3.25;" d="M 27.167969 150.816406 L 70.671875 150.660156 "/>
<path style=" stroke:none;fill-rule:nonzero;fill:rgb(0%,0%,0%);fill-opacity:0.7;" d="M 69.867188 148.390625 L 69.996094 148.648438 L 70.273438 149.269531 L 70.421875 149.640625 L 70.550781 150.015625 L 70.640625 150.367188 L 70.671875 150.660156 L 70.644531 150.929688 L 70.554688 151.273438 L 70.429688 151.664062 L 70.285156 152.0625 L 70.007812 152.738281 L 69.882812 153.027344 L 78.515625 150.632812 Z M 69.867188 148.390625 "/>
<path style="fill:none;stroke-width:1.44;stroke-linecap:butt;stroke-linejoin:miter;stroke:rgb(0%,0%,0%);stroke-opacity:0.7;stroke-miterlimit:3.25;" d="M 59.628906 205.335938 L 80.484375 167.125 "/>
<path style=" stroke:none;fill-rule:nonzero;fill:rgb(0%,0%,0%);fill-opacity:0.7;" d="M 78.105469 166.738281 L 78.394531 166.75 L 79.070312 166.804688 L 79.46875 166.855469 L 79.859375 166.921875 L 80.210938 167.011719 L 80.484375 167.125 L 80.703125 167.28125 L 80.964844 167.523438 L 81.246094 167.824219 L 81.523438 168.140625 L 81.984375 168.710938 L 82.175781 168.960938 L 84.242188 160.242188 Z M 78.105469 166.738281 "/>
<path style="fill:none;stroke-width:1.44;stroke-linecap:butt;stroke-linejoin:miter;stroke:rgb(0%,0%,0%);stroke-opacity:0.7;stroke-miterlimit:3.25;" d="M 134.25 90.085938 L 160.054688 133.265625 "/>
<path style=" stroke:none;fill-rule:nonzero;fill:rgb(0%,0%,0%);fill-opacity:0.7;" d="M 161.597656 131.417969 L 161.441406 131.65625 L 161.050781 132.214844 L 160.804688 132.53125 L 160.546875 132.832031 L 160.292969 133.089844 L 160.054688 133.265625 L 159.808594 133.378906 L 159.46875 133.480469 L 159.070312 133.570312 L 158.652344 133.648438 L 157.929688 133.757812 L 157.617188 133.796875 L 164.078125 140 Z M 161.597656 131.417969 "/>
<path style="fill:none;stroke-width:1.44;stroke-linecap:butt;stroke-linejoin:miter;stroke:rgb(0%,0%,0%);stroke-opacity:0.7;stroke-miterlimit:3.25;" d="M 131.316406 70 L 133.769531 62.488281 L 137.328125 53.96875 L 141.542969 45.820312 L 146.414062 38.046875 L 151.9375 30.648438 L 151.976562 30.601562 "/>
<path style=" stroke:none;fill-rule:nonzero;fill:rgb(0%,0%,0%);fill-opacity:0.7;" d="M 149.777344 29.75 L 150.054688 29.824219 L 150.707031 30.023438 L 151.085938 30.15625 L 151.453125 30.304688 L 151.773438 30.46875 L 152.019531 30.636719 L 152.199219 30.835938 L 152.402344 31.128906 L 152.613281 31.480469 L 152.816406 31.851562 L 153.148438 32.503906 L 153.28125 32.789062 L 157.15625 24.714844 Z M 149.777344 29.75 "/>
<path style="fill:none;stroke-width:1.44;stroke-linecap:butt;stroke-linejoin:miter;stroke:rgb(0%,0%,0%);stroke-opacity:0.7;stroke-miterlimit:3.25;" d="M 162.246094 27.617188 L 159.792969 35.128906 L 156.230469 43.648438 L 152.015625 51.796875 L 147.148438 59.570312 L 141.625 66.972656 L 141.585938 67.015625 "/>
<path style=" stroke:none;fill-rule:nonzero;fill:rgb(0%,0%,0%);fill-opacity:0.7;" d="M 143.785156 67.867188 L 143.503906 67.792969 L 142.855469 67.597656 L 142.476562 67.464844 L 142.109375 67.3125 L 141.785156 67.152344 L 141.542969 66.980469 L 141.363281 66.78125 L 141.160156 66.488281 L 140.949219 66.136719 L 140.746094 65.765625 L 140.414062 65.113281 L 140.28125 64.828125 L 136.40625 72.90625 Z M 143.785156 67.867188 "/>
<path style="fill:none;stroke-width:1.44;stroke-linecap:butt;stroke-linejoin:miter;stroke:rgb(0%,0%,0%);stroke-opacity:0.7;stroke-miterlimit:3.25;" d="M 96.140625 27.464844 L 118.796875 64.578125 "/>
<path style=" stroke:none;fill-rule:nonzero;fill:rgb(0%,0%,0%);fill-opacity:0.7;" d="M 120.324219 62.710938 L 120.167969 62.953125 L 119.785156 63.511719 L 119.542969 63.832031 L 119.289062 64.136719 L 119.035156 64.398438 L 118.796875 64.578125 L 118.554688 64.691406 L 118.214844 64.792969 L 117.816406 64.886719 L 117.398438 64.96875 L 116.675781 65.085938 L 116.363281 65.128906 L 122.886719 71.269531 Z M 120.324219 62.710938 "/>
<path style="fill-rule:evenodd;fill:rgb(99.998474%,99.998474%,99.998474%);fill-opacity:1;stroke-width:1.44;stroke-linecap:square;stroke-linejoin:miter;stroke:rgb(0%,0%,0%);stroke-opacity:0.7;stroke-miterlimit:3.25;" d="M 195.605469 212.75 C 195.605469 215.664062 196.761719 218.460938 198.824219 220.523438 C 200.886719 222.582031 203.679688 223.742188 206.597656 223.742188 C 209.511719 223.742188 212.308594 222.582031 214.367188 220.523438 C 216.429688 218.460938 217.585938 215.664062 217.585938 212.75 C 217.585938 209.835938 216.429688 207.039062 214.367188 204.976562 C 212.308594 202.917969 209.511719 201.757812 206.597656 201.757812 C 203.679688 201.757812 200.886719 202.917969 198.824219 204.976562 C 196.761719 207.039062 195.605469 209.835938 195.605469 212.75 Z M 195.605469 212.75 "/>
<path style="fill-rule:evenodd;fill:rgb(99.998474%,99.998474%,99.998474%);fill-opacity:1;stroke-width:1.44;stroke-linecap:square;stroke-linejoin:miter;stroke:rgb(0%,0%,0%);stroke-opacity:0.7;stroke-miterlimit:3.25;" d="M 158.726562 149.433594 C 158.726562 152.347656 159.882812 155.144531 161.945312 157.207031 C 164.003906 159.265625 166.800781 160.425781 169.714844 160.425781 C 172.632812 160.425781 175.425781 159.265625 177.488281 157.207031 C 179.550781 155.144531 180.707031 152.347656 180.707031 149.433594 C 180.707031 146.519531 179.550781 143.722656 177.488281 141.664062 C 175.425781 139.601562 172.632812 138.441406 169.714844 138.441406 C 166.800781 138.441406 164.003906 139.601562 161.945312 141.664062 C 159.882812 143.722656 158.726562 146.519531 158.726562 149.433594 Z M 158.726562 149.433594 "/>
<path style="fill-rule:evenodd;fill:rgb(99.998474%,99.998474%,99.998474%);fill-opacity:1;stroke-width:1.44;stroke-linecap:square;stroke-linejoin:miter;stroke:rgb(0%,0%,0%);stroke-opacity:0.7;stroke-miterlimit:3.25;" d="M 232.035156 147.609375 C 232.035156 150.527344 233.191406 153.320312 235.253906 155.382812 C 237.3125 157.445312 240.109375 158.601562 243.023438 158.601562 C 245.941406 158.601562 248.734375 157.445312 250.796875 155.382812 C 252.859375 153.320312 254.015625 150.527344 254.015625 147.609375 C 254.015625 144.695312 252.859375 141.898438 250.796875 139.839844 C 248.734375 137.777344 245.941406 136.621094 243.023438 136.621094 C 240.109375 136.621094 237.3125 137.777344 235.253906 139.839844 C 233.191406 141.898438 232.035156 144.695312 232.035156 147.609375 Z M 232.035156 147.609375 "/>
<path style="fill-rule:evenodd;fill:rgb(99.998474%,99.998474%,99.998474%);fill-opacity:1;stroke-width:1.44;stroke-linecap:square;stroke-linejoin:miter;stroke:rgb(0%,0%,0%);stroke-opacity:0.7;stroke-miterlimit:3.25;" d="M 78.515625 150.59375 C 78.515625 153.511719 79.671875 156.304688 81.734375 158.367188 C 83.796875 160.429688 86.589844 161.585938 89.507812 161.585938 C 92.421875 161.585938 95.214844 160.429688 97.277344 158.367188 C 99.339844 156.304688 100.496094 153.511719 100.496094 150.59375 C 100.496094 147.679688 99.339844 144.882812 97.277344 142.824219 C 95.214844 140.761719 92.421875 139.605469 89.507812 139.605469 C 86.589844 139.605469 83.796875 140.761719 81.734375 142.824219 C 79.671875 144.882812 78.515625 147.679688 78.515625 150.59375 Z M 78.515625 150.59375 "/>
<path style="fill-rule:evenodd;fill:rgb(99.998474%,99.998474%,99.998474%);fill-opacity:1;stroke-width:1.44;stroke-linecap:square;stroke-linejoin:miter;stroke:rgb(0%,0%,0%);stroke-opacity:0.7;stroke-miterlimit:3.25;" d="M 5.183594 150.851562 C 5.183594 153.769531 6.34375 156.5625 8.402344 158.625 C 10.464844 160.6875 13.261719 161.84375 16.175781 161.84375 C 19.089844 161.84375 21.886719 160.6875 23.945312 158.625 C 26.007812 156.5625 27.167969 153.769531 27.167969 150.851562 C 27.167969 147.9375 26.007812 145.140625 23.945312 143.082031 C 21.886719 141.019531 19.089844 139.863281 16.175781 139.863281 C 13.261719 139.863281 10.464844 141.019531 8.402344 143.082031 C 6.34375 145.140625 5.183594 147.9375 5.183594 150.851562 Z M 5.183594 150.851562 "/>
<path style="fill-rule:evenodd;fill:rgb(99.998474%,99.998474%,99.998474%);fill-opacity:1;stroke-width:1.44;stroke-linecap:square;stroke-linejoin:miter;stroke:rgb(0%,0%,0%);stroke-opacity:0.7;stroke-miterlimit:3.25;" d="M 43.371094 214.984375 C 43.371094 217.898438 44.53125 220.695312 46.589844 222.757812 C 48.652344 224.816406 51.449219 225.976562 54.363281 225.976562 C 57.277344 225.976562 60.074219 224.816406 62.136719 222.757812 C 64.195312 220.695312 65.355469 217.898438 65.355469 214.984375 C 65.355469 212.070312 64.195312 209.273438 62.136719 207.214844 C 60.074219 205.152344 57.277344 203.992188 54.363281 203.992188 C 51.449219 203.992188 48.652344 205.152344 46.589844 207.214844 C 44.53125 209.273438 43.371094 212.070312 43.371094 214.984375 Z M 43.371094 214.984375 "/>
<path style="fill-rule:evenodd;fill:rgb(99.998474%,99.998474%,99.998474%);fill-opacity:1;stroke-width:1.44;stroke-linecap:square;stroke-linejoin:miter;stroke:rgb(0%,0%,0%);stroke-opacity:0.7;stroke-miterlimit:3.25;" d="M 117.621094 80.652344 C 117.621094 83.566406 118.78125 86.363281 120.839844 88.421875 C 122.902344 90.484375 125.699219 91.640625 128.613281 91.640625 C 131.527344 91.640625 134.324219 90.484375 136.382812 88.421875 C 138.445312 86.363281 139.605469 83.566406 139.605469 80.652344 C 139.605469 77.734375 138.445312 74.941406 136.382812 72.878906 C 134.324219 70.816406 131.527344 69.660156 128.613281 69.660156 C 125.699219 69.660156 122.902344 70.816406 120.839844 72.878906 C 118.78125 74.941406 117.621094 77.734375 117.621094 80.652344 Z M 117.621094 80.652344 "/>
<path style="fill-rule:evenodd;fill:rgb(99.998474%,99.998474%,99.998474%);fill-opacity:1;stroke-width:1.44;stroke-linecap:square;stroke-linejoin:miter;stroke:rgb(0%,0%,0%);stroke-opacity:0.7;stroke-miterlimit:3.25;" d="M 153.957031 16.96875 C 153.957031 19.882812 155.117188 22.679688 157.175781 24.738281 C 159.238281 26.800781 162.035156 27.957031 164.949219 27.957031 C 167.863281 27.957031 170.660156 26.800781 172.722656 24.738281 C 174.78125 22.679688 175.941406 19.882812 175.941406 16.96875 C 175.941406 14.054688 174.78125 11.257812 172.722656 9.195312 C 170.660156 7.132812 167.863281 5.976562 164.949219 5.976562 C 162.035156 5.976562 159.238281 7.132812 157.175781 9.195312 C 155.117188 11.257812 153.957031 14.054688 153.957031 16.96875 Z M 153.957031 16.96875 "/>
<path style="fill-rule:evenodd;fill:rgb(99.998474%,99.998474%,99.998474%);fill-opacity:1;stroke-width:1.44;stroke-linecap:square;stroke-linejoin:miter;stroke:rgb(0%,0%,0%);stroke-opacity:0.7;stroke-miterlimit:3.25;" d="M 79.421875 18.085938 C 79.421875 21 80.582031 23.796875 82.640625 25.855469 C 84.703125 27.917969 87.5 29.074219 90.414062 29.074219 C 93.328125 29.074219 96.125 27.917969 98.183594 25.855469 C 100.246094 23.796875 101.40625 21 101.40625 18.085938 C 101.40625 15.167969 100.246094 12.375 98.183594 10.3125 C 96.125 8.25 93.328125 7.09375 90.414062 7.09375 C 87.5 7.09375 84.703125 8.25 82.640625 10.3125 C 80.582031 12.375 79.421875 15.167969 79.421875 18.085938 Z M 79.421875 18.085938 "/>
</g>
</svg>
